# xmcd
#
# Track frame offsets:
#	150
#	41504
#	64162
#	80824
#	108166
#	115129
#	140016
#	158947
#	183222
#
# Disc length: 2763 seconds
#
# Revision: 1
# Processed by: cddbd v1.5.1PL2 Copyright (c) Steve Scherf et al.
# Submitted via: EasyCDDAExtractor 8.0.2.1
#
DISCID=770ac909
DTITLE=Dio - Civic Auditorium San Jose 20-09-90 Disc 2
DYEAR=1990
DGENRE=Hard Rock
TTITLE0=Lock Up The Wolves
TTITLE1=Hey Angels
TTITLE2=The Last In Line
TTITLE3=Heaven and Hell
TTITLE4=The Last In Line Reprise
TTITLE5=Rainbow In The Dark
TTITLE6=Egypt (The Chains Are On)
TTITLE7=Holy Diver
TTITLE8=We Rock
EXTD=
EXTT0=
EXTT1=
EXTT2=
EXTT3=
EXTT4=
EXTT5=
EXTT6=
EXTT7=
EXTT8=
PLAYORDER=
